<svg width="496" height="169" viewBox="0 0 496 169" fill="none" xmlns="http://www.w3.org/2000/svg">
<path d="M206.097 1.21143L219.046 45.9087H208.881L206.581 36.661H193.753L191.454 45.9087H182.256L195.932 1.21143H206.097ZM204.766 28.9545L200.167 10.6963L195.69 28.9545H204.766Z" fill="white"/>
<path d="M237.199 1.21143C241.798 1.21143 246.276 1.21143 249.785 5.00536C252.206 7.61368 253.053 11.1705 253.053 14.7273C253.053 22.6708 248.817 25.042 246.639 26.3462L255.11 45.9087H244.097L238.046 28.2432H232.964V45.9087H222.919V1.21143H237.199ZM232.964 8.44361V21.011H237.441C241.798 21.011 243.371 18.2841 243.371 14.6087C243.371 8.4436 238.773 8.44361 237.078 8.44361H232.964Z" fill="white"/>
<path d="M284.761 1.21143V9.62921H275.442V46.0272H265.397V9.51065H256.321V1.21143H284.761Z" fill="white"/>
<path d="M308.965 14.0159C308.36 12.356 307.149 8.44354 302.551 8.44354C299.162 8.44354 297.71 10.6962 297.71 12.5932C297.71 15.6757 300.735 16.7428 305.576 18.5212C310.659 20.4181 318.162 23.2636 318.162 32.2742C318.162 39.9806 312.716 46.62 301.946 46.62C298.678 46.62 293.716 46.0272 290.086 41.8776C287.544 39.0321 286.697 36.1867 286.213 34.2897L294.926 31.9185C295.531 33.934 296.742 38.6764 302.309 38.6764C305.697 38.6764 308.118 36.7795 308.118 33.8155C308.118 30.6143 305.213 29.4287 301.824 28.1246C295.652 25.8719 288.028 23.2636 288.028 14.1344C288.028 7.25794 292.627 0.5 302.551 0.5C313.927 0.5 316.347 7.9693 317.315 10.9333L308.965 14.0159Z" fill="white"/>
<path d="M196.174 62.1514V87.7604C196.174 94.2812 196.174 99.6164 202.709 99.6164C205.734 99.6164 207.187 98.1937 208.034 96.6524C208.881 94.874 208.881 92.6214 208.881 87.7604V62.1514H217.352V87.2862C217.352 95.2297 217.352 101.395 211.785 104.952C209.607 106.256 206.702 107.441 201.983 107.441C186.492 107.441 186.371 97.1267 186.371 87.6418V62.1514H196.174Z" fill="white"/>
<path d="M234.053 62.1514L245.792 89.8945V62.1514H253.658V106.849H244.703L230.785 74.4816V106.849H222.919V62.1514H234.053Z" fill="white"/>
<path d="M271.569 62.1514V106.849H261.524V62.1514H271.569Z" fill="white"/>
<path d="M286.213 62.1514L293.232 96.2967L300.493 62.1514H309.086L297.831 107.204L286.576 106.967L275.684 62.1514H286.213Z" fill="white"/>
<path d="M340.914 62.1514V69.8578H323.124V80.1725H336.92V87.879H323.124V98.9051H340.914V106.849H313.2V62.1514H340.914Z" fill="white"/>
<path d="M360.761 62.1514C365.36 62.1514 369.837 62.1514 373.347 65.9453C375.767 68.5536 376.615 72.1104 376.615 75.6672C376.615 83.6108 372.379 85.982 370.2 87.2862L378.672 106.849H367.659L361.608 89.1831H356.525V106.849H346.48V62.1514H360.761ZM356.525 69.3835V81.9509H361.003C365.36 81.9509 366.933 79.2241 366.933 75.5487C366.933 69.3835 362.334 69.3835 360.64 69.3835H356.525Z" fill="white"/>
<path d="M402.876 75.0745C402.271 73.4146 401.061 69.5021 396.462 69.5021C393.073 69.5021 391.621 71.7548 391.621 73.6517C391.621 76.7343 394.646 77.8014 399.487 79.5798C404.57 81.4767 412.073 84.3222 412.073 93.3328C412.073 101.039 406.627 107.679 395.857 107.679C392.589 107.679 387.627 107.086 383.997 102.936C381.455 100.091 380.608 97.2453 380.124 95.3483L388.837 92.9771C389.443 94.9926 390.653 99.735 396.22 99.735C399.608 99.735 402.029 97.8381 402.029 94.874C402.029 91.6729 399.124 90.4873 395.736 89.1832C389.564 86.9305 381.939 84.3222 381.939 75.193C381.939 68.198 386.538 61.5586 396.583 61.5586C407.959 61.5586 410.379 69.0279 411.347 71.9919L402.876 75.0745Z" fill="white"/>
<path d="M427.927 62.1514V106.849H417.882V62.1514H427.927Z" fill="white"/>
<path d="M460.482 62.1514V70.5691H451.163V106.967H441.119V70.5691H432.042V62.1514H460.482Z" fill="white"/>
<path d="M472.584 62.1514L478.998 78.5127L485.896 62.1514H495.698L482.991 87.9975V106.967H472.947V87.9975L461.571 62.1514H472.584Z" fill="white"/>
<path d="M199.683 123.091C204.524 123.091 209.486 123.091 212.875 126.53C216.021 129.731 216.747 133.999 216.747 137.081C216.747 141.468 215.537 145.973 211.906 148.7C208.518 151.309 202.83 151.309 200.046 151.309H196.537V167.789H186.492V123.091H199.683ZM196.537 130.323V143.602H199.683C203.193 143.602 206.097 142.891 206.097 136.844C206.097 130.323 201.862 130.323 199.683 130.323H196.537Z" fill="white"/>
<path d="M232.964 123.091V159.489H247.728V167.907H223.04V123.21H232.964V123.091Z" fill="white"/>
<path d="M254.384 123.091L260.798 139.453L267.697 123.091H277.499L264.792 148.937V167.907H254.747V148.937L243.25 123.091H254.384Z" fill="white"/>
<path d="M295.894 123.091L302.308 150.716L309.57 123.091H323.85V167.789H314.41V130.323L305.092 167.789H297.71L289.238 130.323V167.789H281.13V123.091H295.894Z" fill="white"/>
<path d="M363.544 145.499C363.544 153.68 362.092 168.5 346.965 168.5C332.321 168.5 330.385 154.51 330.385 145.499C330.385 136.963 332.079 122.38 346.965 122.38C361.487 122.498 363.544 136.251 363.544 145.499ZM341.035 145.499C341.035 155.103 342.003 160.556 347.086 160.556C352.168 160.556 353.137 154.984 353.137 145.499C353.137 136.133 352.289 130.442 347.086 130.442C342.003 130.442 341.035 135.777 341.035 145.499Z" fill="white"/>
<path d="M380.124 123.091V148.7C380.124 155.221 380.124 160.556 386.659 160.556C389.685 160.556 391.137 159.134 391.984 157.592C392.832 155.814 392.832 153.561 392.832 148.7V123.091H401.303V148.226C401.303 156.17 401.303 162.335 395.736 165.891C393.558 167.196 390.653 168.381 385.933 168.381C370.443 168.381 370.322 158.067 370.322 148.582V122.973H380.124V123.091Z" fill="white"/>
<path d="M433.736 123.091V131.509H424.418V167.907H414.373V131.509H405.296V123.091H433.736Z" fill="white"/>
<path d="M468.953 167.907H458.909V149.649H447.896V167.907H437.851V123.21H447.896V141.231H458.909V123.21H468.953V167.907Z" fill="white"/>
<path d="M134.816 56.4605C134.816 40.3363 130.218 25.9905 118.116 14.6087C105.53 2.75265 92.0963 0.5 75.3955 0.5H0V168.5H54.217V123.684H31.8283V33.3412H99.2365V109.931C122.351 103.173 134.816 84.915 134.816 56.4605Z" fill="white"/>
</svg>
