<svg width="685" height="168" viewBox="0 0 685 168" fill="none" xmlns="http://www.w3.org/2000/svg">
<g clip-path="url(#clip0_0_211)">
<path d="M57.0904 0.5C41.0749 0.5 27.7055 11.785 24.558 26.8076H89.6229C86.4693 11.785 73.1059 0.5 57.0904 0.5ZM34.3147 77.4246C28.0438 77.4246 22.957 82.4923 22.957 88.7397C22.957 94.9871 28.0438 100.055 34.3147 100.055C40.5856 100.055 45.6724 94.9871 45.6724 88.7397C45.6724 82.4923 40.5856 77.4246 34.3147 77.4246ZM90.0156 38.0685H24.1593C26.3462 54.2467 40.2473 66.7294 57.0904 66.7294C73.9336 66.7294 87.8347 54.2527 90.0216 38.0685H90.0156ZM94.3714 103.816C84.7053 103.816 76.8636 111.623 76.8636 121.259C76.8636 130.894 84.6992 138.701 94.3714 138.701C104.044 138.701 111.879 130.894 111.879 121.259C111.879 111.623 104.044 103.816 94.3714 103.816Z" fill="#9B9B9B"/>
<path d="M24.1592 38.0684H90.0155C90.2149 36.6119 90.3236 35.1253 90.3236 33.6146C90.3236 31.2853 90.0759 29.0103 89.6168 26.8135H24.5579C24.0988 29.0103 23.8511 31.2853 23.8511 33.6146C23.8511 35.1253 23.9598 36.6119 24.1592 38.0684Z" fill="#C7C7C6"/>
<path d="M198.01 69.3235C203.628 67.0063 207.054 62.1613 207.054 54.7884C207.054 45.1706 201.641 38.0746 189.655 38.0746H170.685V86.5248H181.982V70.9004H185.958L195.956 86.5248H209.38L198.01 69.4679V69.3295V69.3235ZM187.256 60.9274H181.982V48.1017H187.462C192.531 48.1017 195.134 50.9003 195.134 54.5176C195.134 58.4718 192.12 60.9335 187.256 60.9335V60.9274ZM234.04 118.201C229.111 118.201 224.731 120.452 221.928 124.406H221.861V118.61H216.315V151.815H221.861V135.246C221.861 127.747 226.036 123.317 232.331 123.317C237.188 123.317 240.474 125.905 240.474 133.681V151.815H246.02V132.11C246.02 122.631 241.23 118.201 234.04 118.201ZM252.382 151.815H257.928V118.61H252.382V151.815ZM231.183 83.7864H231.322L231.666 86.5128H241.532V66.1757C241.532 55.2579 235.708 52.4592 227.286 52.4592C221.734 52.4592 217.288 53.2115 213.79 54.1685L215.161 62.7692C218.931 61.8122 222.489 61.0659 225.16 61.0659C229.679 61.0659 230.917 63.046 231.05 65.7725H224.543C215.711 65.7725 210.775 69.8652 210.775 76.6903C210.775 82.697 214.34 87.1327 221.807 87.1327C226.054 87.1327 229.135 85.4957 231.189 83.7924L231.183 83.7864ZM225.842 72.3268L231.05 72.2606V75.8116C231.05 76.6964 229.407 79.3566 224.682 79.3566C222.423 79.3566 221.118 77.9904 221.118 75.944C221.118 73.4222 222.9 72.393 225.842 72.3268ZM393.519 83.9248C396.189 85.8327 399.343 87.1327 403.656 87.1327C413.932 87.1327 420.85 80.2414 420.85 69.0466C420.85 58.9473 414.343 52.4652 405.505 52.4652C401.735 52.4652 398.382 53.8976 395.984 56.6963H395.845V36.293H385.091V86.5128H392.764L393.519 83.9188V83.9248ZM395.235 71.2314C395.235 65.297 398.521 61.9506 402.768 61.9506C406.604 61.9506 409.963 64.8877 409.963 69.7328C409.963 74.5778 406.399 77.7857 402.43 77.7857C399.687 77.7857 397.228 76.6241 395.241 75.1917V71.2314H395.235ZM514.019 72.1884C514.019 66.3202 517.372 63.4553 521.691 63.4553C522.857 63.4553 524.09 63.6599 525.389 64.003V52.5374C525.322 52.4712 525.183 52.4712 523.54 52.4712C520.048 52.4712 516.689 54.4514 514.158 57.9302H514.019V53.1513H503.265V86.5188H514.019V72.1884ZM585.765 87.1327C589.052 87.1327 594.26 86.5188 597.48 85.1526L596.38 76.4195C592.61 78.0566 589.602 78.4658 586.998 78.4658C580.763 78.4658 577.477 76.4195 576.516 72.6639H598.639C598.778 71.9837 598.911 70.6175 598.911 69.2513C598.911 59.6996 593.293 52.4652 582.817 52.4652C572.952 52.4652 565.696 59.6274 565.696 69.2513C565.696 79.7599 572.269 87.1267 585.765 87.1267V87.1327ZM582.757 60.9997C585.705 60.9997 587.964 62.8414 588.581 66.3202L576.389 66.3864C577.072 62.9076 579.609 60.9937 582.757 60.9937V60.9997ZM255.185 104.563C252.859 104.563 251.077 106.405 251.077 108.583C251.077 110.762 252.859 112.604 255.185 112.604C257.511 112.604 259.293 110.828 259.293 108.583C259.293 106.338 257.444 104.563 255.185 104.563ZM265.443 86.5188L278.39 53.1513H267.159L260.652 73.7593H260.513L253.868 53.1513H242.704L255.717 86.5188H265.443ZM202.372 131.701C202.372 141.042 197.031 146.567 189.437 146.567C181.843 146.567 176.642 140.633 176.642 131.701V103.401H170.685V132.104C170.685 144.858 178.352 152.219 189.437 152.219C200.523 152.219 208.329 144.581 208.329 132.104V103.401H202.372V131.701ZM0 163.076H136.775V26.8076H0V163.07V163.076ZM125.478 151.815H19.2899L125.478 46.0312V151.821V151.815ZM11.2973 38.0685H117.485L11.2973 143.859V38.0685ZM298.429 87.1327C301.715 87.1327 306.923 86.5188 310.143 85.1526L309.043 76.4195C305.279 78.0566 302.265 78.4658 299.661 78.4658C293.426 78.4658 290.14 76.4195 289.179 72.6639H311.303C311.442 71.9837 311.575 70.6175 311.575 69.2513C311.575 59.6996 305.962 52.4652 295.48 52.4652C285.615 52.4652 278.359 59.6274 278.359 69.2513C278.359 79.7599 284.938 87.1267 298.429 87.1267V87.1327ZM295.414 60.9997C298.356 60.9997 300.622 62.8414 301.238 66.3202L289.047 66.3864C289.729 62.9076 292.267 60.9937 295.414 60.9937V60.9997ZM278.1 144.792H277.894L267.63 118.61H261.673L275.29 151.815H280.631L294.182 118.61H288.158L278.1 144.792ZM519.716 118.201C509.313 118.201 502.468 125.7 502.468 135.246C502.468 144.792 509.313 152.225 519.716 152.225C529.503 152.225 536.825 145.339 536.825 135.246C536.825 125.153 529.503 118.201 519.716 118.201ZM519.716 147.181C512.805 147.181 508.08 141.86 508.08 135.246C508.08 128.631 512.732 123.317 519.716 123.317C526.15 123.317 531.212 128.156 531.212 135.246C531.212 142.336 526.15 147.181 519.716 147.181ZM486.029 82.7632H486.235V86.5128H496.988V53.1453H486.235V69.6605C486.235 75.1195 483.565 77.6413 480.345 77.6413C476.714 77.6413 475.209 75.6611 475.209 70.2744V53.1453H464.522V72.9347C464.522 83.5095 469.591 87.1267 476.575 87.1267C480.272 87.1267 483.631 85.6281 486.023 82.7572L486.029 82.7632ZM550.665 69.1189V86.5188H561.419V66.5248C561.419 55.95 556.35 52.4652 549.367 52.4652C545.53 52.4652 541.9 54.1023 539.229 57.1718V53.1453H528.476V86.5128H539.229V69.7267C539.229 64.5386 541.694 62.0168 545.325 62.0168C548.956 62.0168 550.665 63.6539 550.665 69.1128V69.1189ZM610.021 141.656V101.632H604.475V120.584C601.461 119.014 598.108 118.195 594.55 118.195C584.146 118.195 577.302 125.628 577.302 135.92C577.302 146.212 584.213 152.219 593.045 152.219C597.836 152.219 601.805 150.172 604.475 146.766H604.886C605.158 148.674 605.847 150.858 607.49 152.562L612.625 149.288C611.254 148.198 610.021 146.627 610.021 141.65V141.656ZM604.481 135.451C604.481 142.474 599.485 147.181 593.323 147.181C587.644 147.181 582.92 142.408 582.92 135.932C582.92 128.09 587.916 123.317 595.172 123.317C597.637 123.317 601.334 124.34 604.481 127.271V135.451ZM673.02 118.201C668.09 118.201 663.71 120.452 660.907 124.406H660.841V118.61H655.295V151.815H660.841V135.246C660.841 127.747 665.015 123.317 671.31 123.317C676.168 123.317 679.454 125.905 679.454 133.681V151.815H685V132.11C685 122.631 680.209 118.201 673.026 118.201H673.02ZM632.676 118.201C622.273 118.201 615.428 125.7 615.428 135.246C615.428 144.792 622.273 152.225 632.676 152.225C642.463 152.225 649.785 145.339 649.785 135.246C649.785 125.153 642.463 118.201 632.676 118.201ZM632.676 147.181C625.765 147.181 621.041 141.86 621.041 135.246C621.041 128.631 625.693 123.317 632.676 123.317C639.11 123.317 644.173 128.156 644.173 135.246C644.173 142.336 639.11 147.181 632.676 147.181ZM560.066 118.201C555.136 118.201 550.756 120.452 547.953 124.406H547.886V118.61H542.341V151.815H547.886V135.246C547.886 127.747 552.061 123.317 558.356 123.317C563.213 123.317 566.5 125.905 566.5 133.681V151.815H572.046V132.11C572.046 122.631 567.255 118.201 560.072 118.201H560.066ZM442.109 52.4652C431.15 52.4652 423.822 59.6996 423.822 69.8652C423.822 80.0307 431.15 87.1989 442.109 87.1989C453.068 87.1989 460.33 80.1029 460.33 69.8652C460.33 59.6274 452.863 52.4652 442.109 52.4652ZM442.109 77.7135C437.657 77.7135 434.642 74.1625 434.642 69.8652C434.642 65.5678 437.657 62.0168 442.109 62.0168C446.562 62.0168 449.51 65.291 449.51 69.8652C449.51 74.4394 446.356 77.7135 442.109 77.7135ZM476.684 103.407H470.727V151.815H500.77V146.362H476.678V103.407H476.684ZM365.934 132.315C362.376 130.955 359.639 129.727 359.639 127.133C359.639 124.743 362.243 123.245 364.774 123.245C368.266 123.245 371.414 124.334 374.356 126.176L376.476 121.06C372.096 118.809 368.333 118.195 365.046 118.195C358.679 118.195 354.027 122.011 354.027 127.127C354.027 133.194 358.612 135.445 364.019 137.353C368.876 138.99 371.957 139.941 371.957 142.805C371.957 145.189 369.632 147.235 365.662 147.235C361.077 147.235 357.996 145.67 355.259 143.961L352.861 148.938C356.969 151.189 360.866 152.213 365.662 152.213C373.667 152.213 377.57 147.915 377.57 142.733C377.636 136.185 372.984 135.029 365.934 132.303V132.315ZM336.773 125.43H336.567V118.61H331.022V151.815H336.567V137.84C336.567 131.226 340.059 123.997 346.765 123.997C348.68 123.997 350.185 124.34 351.622 125.02V118.34C351.417 118.273 350.462 118.201 349.296 118.201C343.545 118.201 339.304 121 336.773 125.43ZM338.531 69.1189V86.5188H349.284V66.5248C349.284 55.95 344.216 52.4652 337.232 52.4652C333.396 52.4652 329.765 54.1023 327.095 57.1718V53.1453H316.341V86.5128H327.095V69.7267C327.095 64.5386 329.56 62.0168 333.19 62.0168C336.821 62.0168 338.531 63.6539 338.531 69.1128V69.1189ZM310.251 118.201C301.22 118.201 294.302 125.225 294.302 135.246C294.302 145.267 301.419 152.225 311.55 152.225C316.202 152.225 320.516 151.545 324.485 149.703L323.524 144.455C320.105 146.158 316.613 147.181 312.438 147.181C305.183 147.181 300.664 143.161 299.915 136.955H325.578C325.578 136.751 325.717 135.589 325.717 134.704C325.717 125.159 319.555 118.201 310.251 118.201ZM300.12 132.387C301.147 126.73 305.322 123.317 310.523 123.317C315.725 123.317 319.35 126.928 320.244 132.387H300.12ZM406.737 146.91C403.04 146.91 402.085 144.93 402.085 141.114V123.383H413.171V118.61H402.085V106.675L396.54 110.088V118.61H392.299V123.383H396.54V141.927C396.54 148.607 399.143 152.225 405.777 152.225C408.308 152.225 411.184 151.954 413.715 150.858L412.893 145.129C410.906 146.356 408.242 146.898 406.731 146.898L406.737 146.91ZM385.581 104.563C383.255 104.563 381.473 106.405 381.473 108.583C381.473 110.762 383.255 112.604 385.581 112.604C387.906 112.604 389.689 110.828 389.689 108.583C389.689 106.338 387.84 104.563 385.581 104.563ZM432.201 143.907H432.062L421.249 118.61H415.292L429.392 150.455L422.203 167.5H428.432L448.144 118.61H442.26L432.201 143.907ZM382.771 151.815H388.317V118.61H382.771V151.815ZM369.329 65.5016C365.493 64.4123 364.261 63.5215 364.261 62.2937C364.261 60.795 365.904 60.5904 366.52 60.5904C369.329 60.5904 372.272 61.4751 376.591 63.5937L379.533 54.5176C374.054 53.0129 371.311 52.4712 367.275 52.4712C359.331 52.4712 353.646 56.3593 353.646 63.3891C353.646 69.9374 358.576 72.2606 364.055 73.8977C368.78 75.3301 369.813 76.1487 369.813 77.1056C369.813 78.3996 368.719 79.152 366.321 79.152C363.24 79.152 359.265 77.6473 356.389 75.6732L353.513 84.7493C357.827 86.3864 361.802 87.205 367.414 87.205C375.908 87.205 380.705 83.2447 380.705 76.4255C380.705 69.6064 377.213 67.7586 369.336 65.5077L369.329 65.5016Z" fill="white"/>
</g>
<defs>
<clipPath id="clip0_0_211">
<rect width="685" height="167" fill="white" transform="translate(0 0.5)"/>
</clipPath>
</defs>
</svg>
